<svg height="464pt" viewBox="0 0 464 464" width="464pt" xmlns="http://www.w3.org/2000/svg"><path d="m88 224h64v16h-64zm0 0" fill="#e59730"/><path d="m56 104h128v64c0 35.347656-28.652344 64-64 64s-64-28.652344-64-64zm0 0" fill="#f9e109"/><path d="m192 400h48v-120c0-26.507812-21.492188-48-48-48h-144c-26.507812 0-48 21.492188-48 48v152h224c-17.671875 0-32-14.328125-32-32zm0 0" fill="#a1d51c"/><path d="m120 16c-53.019531 0-96 42.980469-96 96v16c0 17.671875 14.328125 32 32 32v-56h128v56c17.671875 0 32-14.328125 32-32v-16c0-53.019531-42.980469-96-96-96zm0 0" fill="#57b7eb"/><path d="m80 232h80v8c0 22.089844-17.910156 40-40 40s-40-17.910156-40-40zm0 0" fill="#fcbc04"/><path d="m40 432v-112c0-4.417969 3.582031-8 8-8s8 3.582031 8 8v112" fill="#7ab92d"/><path d="m80 240c-.039062.691406-.039062 1.386719 0 2.078125 23.289062 18.46875 56.230469 18.46875 79.519531 0 .199219-.679687.359375-1.375.480469-2.078125v-8h-80zm0 0" fill="#e59730"/><path d="m80 168v-40h104v-24h-128v64c0 35.347656 28.652344 64 64 64 4.03125.003906 8.050781-.398438 12-1.199219-30.148438-5.757812-51.96875-32.105469-52-62.800781zm0 0" fill="#fcbc04"/><path d="m60.398438 36.800781c-22.976563 18.195313-36.378907 45.890625-36.398438 75.199219v16c0 17.671875 14.328125 32 32 32v-56h96c-41.933594.007812-79.019531-27.199219-91.601562-67.199219zm0 0" fill="#4891d3"/><path d="m184 432v-112c0-4.417969 3.582031-8 8-8s8 3.582031 8 8v112" fill="#7ab92d"/><path d="m192 400h-96c-35.347656 0-64-28.652344-64-64v-56c0-26.507812 21.492188-48 48-48h-32c-26.507812 0-48 21.492188-48 48v152h224c-17.671875 0-32-14.328125-32-32zm0 0" fill="#7ab92d"/><path d="m192 232h-24c26.507812 0 48 21.492188 48 48v120h24v-120c0-26.507812-21.492188-48-48-48zm0 0" fill="#c4f236"/><path d="m288 288h160c8.835938 0 16 7.164062 16 16v112c0 8.835938-7.164062 16-16 16h-176v-128c0-8.835938 7.164062-16 16-16zm0 0" fill="#57b7eb"/><path d="m192 400h80v32h-48c-17.671875 0-32-14.328125-32-32zm0 0" fill="#4891d3"/><path d="m0 432h464v32h-464zm0 0" fill="#f9e109"/><path d="m392 360c0 13.253906-10.746094 24-24 24s-24-10.746094-24-24 10.746094-24 24-24 24 10.746094 24 24zm0 0" fill="#c4f236"/><path d="m0 448h464v16h-464zm0 0" fill="#fcbc04"/><path d="m248 400h24v32h-24zm0 0" fill="#2d72bc"/><path d="m392 408c-48.601562 0-88-39.398438-88-88v-32h-16c-8.835938 0-16 7.164062-16 16v128h176c8.835938 0 16-7.164062 16-16v-8zm0 0" fill="#4891d3"/><path d="m392 208c-4.417969 0-8-3.582031-8-8v-56c0-4.417969 3.582031-8 8-8s8 3.582031 8 8v56c0 4.417969-3.582031 8-8 8zm0 0" fill="#2d72bc"/><path d="m464 72c0 39.765625-32.234375 72-72 72s-72-32.234375-72-72 32.234375-72 72-72 72 32.234375 72 72zm0 0" fill="#f9e109"/><path d="m416 120c-26.011719-.023438-49.988281-14.070312-62.722656-36.753906-12.734375-22.679688-12.242188-50.46875 1.28125-72.6875-25.578125 15.488281-38.925782 45.175781-33.527344 74.585937 5.394531 29.414063 28.410156 52.429688 57.824219 57.824219 29.410156 5.398438 59.097656-7.949219 74.585937-33.527344-11.277344 6.886719-24.230468 10.539063-37.441406 10.558594zm0 0" fill="#fcbc04"/><path d="m408 56c0 8.835938-7.164062 16-16 16s-16-7.164062-16-16 7.164062-16 16-16 16 7.164062 16 16zm0 0" fill="#57b7eb"/><path d="m384 72h16c8.835938 0 16 7.164062 16 16v16h-48v-16c0-8.835938 7.164062-16 16-16zm0 0" fill="#57b7eb"/><path d="m400 64c-8.835938 0-16-7.164062-16-16 .011719-2.265625.5-4.5 1.441406-6.558594-6.527344 2.898438-10.339844 9.773438-9.347656 16.84375.992188 7.070313 6.550781 12.628906 13.621094 13.621094 7.070312.992188 13.945312-2.820312 16.84375-9.347656-2.058594.941406-4.292969 1.429687-6.558594 1.441406zm0 0" fill="#4891d3"/><path d="m384 96c-4.417969 0-8-3.582031-8-8 0-8.835938 7.164062-16 16-16h-8c-8.835938 0-16 7.164062-16 16v16h48v-8zm0 0" fill="#4891d3"/><path d="m392 264c-4.417969 0-8-3.582031-8-8v-24c0-4.417969 3.582031-8 8-8s8 3.582031 8 8v24c0 4.417969-3.582031 8-8 8zm0 0" fill="#2d72bc"/><path d="m328 176c0 17.671875-14.328125 32-32 32s-32-14.328125-32-32 14.328125-32 32-32 32 14.328125 32 32zm0 0" fill="#f9e109"/><path d="m304 176c0 4.417969-3.582031 8-8 8s-8-3.582031-8-8 3.582031-8 8-8 8 3.582031 8 8zm0 0" fill="#2d72bc"/><path d="m296 264c-4.417969 0-8-3.582031-8-8v-16c0-4.417969 3.582031-8 8-8s8 3.582031 8 8v16c0 4.417969-3.582031 8-8 8zm0 0" fill="#2d72bc"/><path d="m312 200c-13.136719-.042969-24.914062-8.109375-29.699219-20.34375-4.785156-12.238281-1.605469-26.152344 8.019531-35.097656-13.472656 2.34375-23.96875 12.992187-26.121093 26.496094-2.148438 13.507812 4.519531 26.886718 16.601562 33.296874 12.078125 6.414063 26.898438 4.4375 36.878907-4.910156-1.875.347656-3.773438.535156-5.679688.558594zm0 0" fill="#fcbc04"/></svg>